<?xml version="1.0" encoding="UTF-8"?>
<!DOCTYPE svg PUBLIC "-//W3C//DTD SVG 1.1//EN" "http://www.w3.org/Graphics/SVG/1.1/DTD/svg11.dtd">
<!-- Creator: CorelDRAW -->
<svg xmlns="http://www.w3.org/2000/svg" xml:space="preserve" width="225.311mm" height="118.898mm" version="1.1" style="shape-rendering:geometricPrecision; text-rendering:geometricPrecision; image-rendering:optimizeQuality; fill-rule:evenodd; clip-rule:evenodd"
viewBox="0 0 22531.14 11889.86"
 xmlns:xlink="http://www.w3.org/1999/xlink"
 xmlns:xodm="http://www.corel.com/coreldraw/odm/2003">
 <defs>
  <style type="text/css">
   <![CDATA[
    .str0 {stroke:#C49E60;stroke-width:7.62;stroke-miterlimit:2.61313}
    .fil0 {fill:#AB8548}
    .fil2 {fill:#C49E60;fill-rule:nonzero}
    .fil1 {fill:#FFD380;fill-rule:nonzero}
   ]]>
  </style>
 </defs>
 <g id="Layer_x0020_1">
  <metadata id="CorelCorpID_0Corel-Layer"/>
  <g id="_2291177375808">
   <path class="fil0" d="M8034.53 2061.34c-326.72,-58.43 -593.67,-114.59 -899.52,-67.41 -155.23,23.94 -320.48,74.48 -508.65,164.86 -402.75,193.41 -740.63,554.42 -846.85,889.01l2127.4 -412.28c-784.99,488.05 -1205.85,1127.55 -887.19,2298.5 520.72,-730.9 998.51,-1496.25 1511.26,-2222.75 49.61,-70.28 99.55,-140.2 149.87,-209.69 139.9,-31.95 2455.43,1579.39 2455.43,1579.39 85.78,-323.51 -288.93,-969.66 -549.34,-1221.1 -361.05,-348.56 -1115.16,-520.2 -1133.33,-516.35l2120.1 -449.49c-170.14,-235.25 -694.19,-472.82 -1088.81,-500.43 -643.44,-44.99 -929.52,171.4 -1372.8,450.23 193.51,-291.29 1121.98,-1626.14 1182.9,-1843.83 -610.86,35.66 -1015.32,315.7 -1280.98,640.64 -404.23,494.42 -487.22,1092.88 -487.22,1092.88 -96.67,-271.48 -465.24,-616.45 -935.35,-825.16 -414.03,-183.85 -906.84,-262.02 -1362.04,-91.28 172.23,196.23 1461.31,974.09 1805.12,1244.26z"/>
   <path class="fil0" d="M9873.02 4676.77c233.56,676.18 315.96,1305.01 340.85,2043.35l758.38 0c-35.11,-932.34 -278.56,-1640.42 -664.4,-2379.48 -320.86,-614.81 -1180.5,-1660.99 -1737.29,-1948.97l-0.32 264.08c589.07,461.75 1059.66,1317.52 1302.78,2021.02z"/>
   <path class="fil1" d="M8125.43 2231.14l0 -93.43 476.41 0 352.84 0 352.83 0 778.22 0c345.46,0 670.02,57.78 972.45,186.87 309.81,130.31 575.37,302.43 806.49,518.8 229.9,216.38 410.62,468.41 547.09,756.09 143.84,288.91 209,591.34 209,915.9 0,315.96 -50.41,625.77 -179.5,914.68 -122.94,287.68 -288.91,539.71 -497.9,756.08 -201.63,216.38 -446.28,381.12 -720.44,511.43 -272.92,129.09 -561.83,194.25 -871.64,194.25l-1043.77 0 -352.83 0 -352.84 0 -459.87 0 0 -93.43c346.39,0 459.87,-288.46 459.87,-597.49l0 -3371.03c0,-194.15 -71.69,-472.94 -258.26,-571.62 -67.79,-35.84 -144.08,-27.1 -218.15,-27.1zm1182.08 4481.18l1043.77 0c216.37,0 410.62,-57.78 598.72,-173.35 194.24,-122.94 352.84,-274.16 496.68,-475.78 143.84,-201.62 252.02,-431.52 338.08,-698.3 87.29,-274.16 130.32,-554.46 130.32,-849.52 0,-303.66 -43.03,-576.59 -143.84,-843.37 -100.81,-274.15 -223.75,-496.68 -397.1,-698.3 -164.74,-201.62 -352.84,-360.21 -582.74,-475.78 -223.75,-122.94 -461.02,-179.49 -705.67,-179.49l-778.22 0 0 4393.89z"/>
   <path class="fil0" d="M10960.78 6512.92c7.6,95.09 14.28,187.16 14.88,282.53 -140.23,51.29 -309.3,77.77 -446.99,89.08 -173.18,14.23 -311.33,7.26 -311.33,7.26 -1.25,-62.58 -1.98,-131.31 -4.27,-194.75 250.29,-13.91 525.49,-66.99 747.51,-184.01l0.2 -0.11z"/>
   <path class="fil2 str0" d="M4712.25 10631.9l0 -13.56 -140 4 -190.68 -4 0 13.56c76.01,0 113.34,9.33 113.34,56l0 358.91 -484.02 0 0 -358.91c0,-46.67 48,-56 101.34,-56l0 -13.56 -140.01 4 -190.67 -4 0 13.56c76,0 113.34,9.33 113.34,56l1.33 795.15c0,46.66 -38.67,56 -114.67,56l0 13.55 190.67 -4 140.01 4 0 -13.55c-53.34,0 -102.67,-9.34 -102.67,-56l1.33 -414.91 484.02 0 1.33 414.91c0,46.66 -38.66,56 -114.67,56l0 13.55 190.68 -4 140 4 0 -13.55c-53.33,0 -101.33,-9.34 -101.33,-56l0 -795.15c0,-46.67 48,-56 101.33,-56zm478.69 240.23c213.34,0 354.68,178.68 354.68,352.02 0,186.67 -141.34,341.34 -356.01,341.34 -212.01,0 -337.35,-154.67 -337.35,-341.34 0,-173.34 125.34,-352.02 338.68,-352.02zm-208.01 352.02c0,146.67 48,316.01 206.68,316.01 161.34,0 225.34,-169.34 225.34,-316.01 0,-133.34 -64,-326.68 -224.01,-326.68 -160.01,0 -208.01,193.34 -208.01,326.68zm913.37 -325.35c154.68,0 189.34,92 198.68,161.34l8 0 -12 -137.34c-37.34,-29.33 -84.01,-50.67 -188.01,-50.67 -134.67,0 -238.68,77.34 -238.68,184.01 0,120 124.01,172.01 202.68,202.67 69.33,26.67 172.01,45.34 172.01,146.68 0,92 -86.67,141.34 -169.34,141.34 -80.01,0 -133.34,-33.34 -172.01,-104.01 -13.34,-24 -24,-52 -34.67,-82.67l-6.67 2.67 38.67 173.34c54.67,18.67 112.01,29.33 172.01,29.33 102.67,0 265.34,-52 265.34,-209.34 0,-100 -49.33,-154.67 -178.67,-201.34 -116.01,-41.34 -197.34,-77.34 -197.34,-142.67 0,-81.34 84,-113.34 140,-113.34zm349.35 987.15l190.67 -4 166.68 4 0 -13.55c-53.34,0 -128.01,-9.34 -128.01,-56.01l0 -263.12c384.02,73.34 416.02,-232.01 416.02,-356.01 0,-233.12 -146.45,-325.13 -258.46,-325.13 -74.44,0 -122.45,48 -154.45,108.01l-1.33 -121.34 -10.89 0c0,49.33 -68,70.67 -205.34,70.67l0 12 35.78 0c58.67,0 62.67,17.33 62.67,128l0 746.92c0,46.67 -37.34,56.01 -113.34,56.01l0 13.55zm230.67 -362.01l0 -498.47c34.67,-73.34 80.01,-105.34 156.01,-105.34 118.67,0 146.67,126.68 146.67,277.13 0,241.34 -85.33,356.01 -302.68,326.68zm662.7 -703.81c46.67,0 85.34,-38.67 85.34,-85.34 0,-46.67 -38.67,-85.34 -85.34,-85.34 -48,0 -86.67,38.67 -86.67,85.34 0,46.67 38.67,85.34 86.67,85.34zm-141.34 109.34c137.34,0 194.68,-21.34 194.68,-70.67l10.66 0 -1.33 624.02c0,46.67 74.67,56.01 128.01,56.01l0 13.33 -166.68 -4 -180 4 0 -13.33c76,0 113.33,-9.34 113.33,-56.01l0 -484.02c0,-40 -4,-57.33 -62.67,-57.33l-36 0 0 -12zm850.71 530.69c-16,24 -50.67,52 -102.67,52 -61.34,0 -106.68,-34.67 -106.68,-114.67l1.34 -496.02 134.67 0 0 -16.01 -134.67 0 0 -266.67 -10.67 0c0,49.33 -68,266.67 -205.34,266.67l-28 0 0 16.01 82.67 0c41.33,6.66 44,34.66 44,49.33l0 421.35c0,77.34 25.33,193.34 142.67,193.34 140.01,0 176.01,-72 189.34,-90.67l-6.66 -14.66zm646.69 21.33l8 -390.68c0,-148.01 -108,-218.68 -265.34,-218.68 -89.34,0 -245.35,40 -245.35,145.34l97.34 49.34c0,-104.01 37.34,-170.68 148.01,-170.68 101.33,0 145.34,50.67 145.34,196.01l-1.34 92c-190.67,9.34 -412.01,-13.33 -412.01,205.35 0,93.33 76,176 237.34,176 88,0 141.34,-36 172.01,-72l-1.34 61.34 220.01 -2.67 0 -13.33c-77.33,0 -104,-9.34 -102.67,-57.34zm-257.34 58.67c-106.67,0 -150.68,-73.34 -150.68,-166.67 0,-193.35 122.68,-152.01 294.68,-177.35l-2.66 272.02c-28,36 -77.34,72 -141.34,72zm456.02 -917.37c137.34,-1.34 194.67,-18.67 194.67,-68.01l10.67 0 0 930.71c0,46.67 76,56 129.34,56l0 13.34 -173.34 -4c-64.01,-1.34 -109.34,4 -173.34,5.33l0 -13.33c76,0 112,-9.34 112,-56.01l-1.33 -794.7c0,-40 -4,-57.33 -62.67,-57.33l-36 0 0 -12zm582.69 197.34c46.67,0 85.34,-38.67 85.34,-85.34 0,-46.67 -38.67,-85.34 -85.34,-85.34 -48,0 -86.67,38.67 -86.67,85.34 0,46.67 38.67,85.34 86.67,85.34zm-141.34 109.34c137.34,0 194.68,-21.34 194.68,-70.67l10.66 0 -1.33 624.02c0,46.67 74.67,56.01 128.01,56.01l0 13.33 -166.68 -4 -180 4 0 -13.33c76,0 113.33,-9.34 113.33,-56.01l0 -484.02c0,-40 -4,-57.33 -62.67,-57.33l-36 0 0 -12zm850.71 530.69c-16,24 -50.67,52 -102.67,52 -61.34,0 -106.68,-34.67 -106.68,-114.67l1.34 -496.02 134.67 0 0 -16.01 -134.67 0 0 -266.67 -10.67 0c0,49.33 -68,266.67 -205.34,266.67l-28 0 0 16.01 82.67 0c41.33,6.66 44,34.66 44,49.33l0 421.35c0,77.34 25.33,193.34 142.67,193.34 140.01,0 176.01,-72 189.34,-90.67l-6.66 -14.66zm86.67 -561.36c76,0 90.67,9.33 113.34,56l270.67 568.03c0,73.33 -56,221.34 -137.34,252.01 -74.66,28 -112,20 -140,20 -25.34,0 -33.34,26.66 -33.34,42.67 0,18.66 14.67,48 42.67,48 225.35,0 282.68,-262.68 318.68,-349.35 30.67,-74.67 156.01,-394.68 234.68,-585.36 20,-48 57.34,-52 97.34,-52l0 -13.34 -242.68 0 0 13.34c34.67,0 120.01,1.33 105.34,45.33l-177.34 466.69 -198.68 -452.02c-22.67,-53.33 58.67,-60 112.01,-60l0 -13.34 -365.35 0 0 13.34zm1926.74 582.69l8 -390.68c0,-148.01 -108,-218.68 -265.34,-218.68 -89.34,0 -245.35,40 -245.35,145.34l97.34 49.34c0,-104.01 37.34,-170.68 148.01,-170.68 101.33,0 145.34,50.67 145.34,196.01l-1.34 92c-190.67,9.34 -412.01,-13.33 -412.01,205.35 0,93.33 76,176 237.34,176 88,0 141.34,-36 172.01,-72l-1.34 61.34 220.01 -2.67 0 -13.33c-77.33,0 -104,-9.34 -102.67,-57.34zm-257.34 58.67c-106.67,0 -150.68,-73.34 -150.68,-166.67 0,-193.35 122.68,-152.01 294.68,-177.35l-2.66 272.02c-28,36 -77.34,72 -141.34,72zm865.37 -80c-16,24 -50.67,52 -102.67,52 -61.34,0 -106.68,-34.67 -106.68,-114.67l1.34 -496.02 134.67 0 0 -16.01 -134.67 0 0 -266.67 -10.67 0c0,49.33 -68,266.67 -205.34,266.67l-28 0 0 16.01 82.67 0c41.33,6.66 44,34.66 44,49.33l0 421.35c0,77.34 25.33,193.34 142.67,193.34 140.01,0 176.01,-72 189.34,-90.67l-6.66 -14.66zm874.69 -640.03c46.67,0 85.34,-38.67 85.34,-85.34 0,-46.67 -38.67,-85.34 -85.34,-85.34 -48,0 -86.67,38.67 -86.67,85.34 0,46.67 38.67,85.34 86.67,85.34zm-141.34 109.34c137.34,0 194.68,-21.34 194.68,-70.67l10.66 0 -1.33 624.02c0,46.67 74.67,56.01 128.01,56.01l0 13.33 -166.68 -4 -180 4 0 -13.33c76,0 113.33,-9.34 113.33,-56.01l0 -484.02c0,-40 -4,-57.33 -62.67,-57.33l-36 0 0 -12zm850.71 530.69c-16,24 -50.67,52 -102.67,52 -61.34,0 -106.68,-34.67 -106.68,-114.67l1.34 -496.02 134.67 0 0 -16.01 -134.67 0 0 -266.67 -10.67 0c0,49.33 -68,266.67 -205.34,266.67l-28 0 0 16.01 82.67 0c41.33,6.66 44,34.66 44,49.33l0 421.35c0,77.34 25.33,193.34 142.67,193.34 140.01,0 176.01,-72 189.34,-90.67l-6.66 -14.66zm364.01 -561.36c154.68,0 189.34,92 198.68,161.34l8 0 -12 -137.34c-37.34,-29.33 -84.01,-50.67 -188.01,-50.67 -134.67,0 -238.68,77.34 -238.68,184.01 0,120 124.01,172.01 202.68,202.67 69.33,26.67 172.01,45.34 172.01,146.68 0,92 -86.67,141.34 -169.34,141.34 -80.01,0 -133.34,-33.34 -172.01,-104.01 -13.34,-24 -24,-52 -34.67,-82.67l-6.67 2.67 38.67 173.34c54.67,18.67 112.01,29.33 172.01,29.33 102.67,0 265.34,-52 265.34,-209.34 0,-100 -49.33,-154.67 -178.67,-201.34 -116.01,-41.34 -197.34,-77.34 -197.34,-142.67 0,-81.34 84,-113.34 140,-113.34zm874.7 653.8l0 -793.58c0,-110.68 -4,-128.01 -62.67,-128.01l-36 0 0 -12c137.34,0 205.34,-17.33 205.34,-66.67l10.67 0 0 414.68c32,-60 80,-94.67 154.67,-94.67 112.01,0 258.68,85.34 258.68,318.68 0,124.01 -2.66,398.91 -530.69,361.57zm116.01 -69.33l1.33 44c206.68,0 301.35,-104 301.35,-336.24 0,-150.67 -28,-270.67 -146.68,-270.67 -76,0 -121.33,32 -156,105.33l0 457.58zm865.37 56.89c-184.01,0 -229.35,-168.01 -229.35,-328.01l457.36 0c0,-186.68 -110.67,-340.02 -278.68,-340.02 -168.01,0 -306.68,166.67 -306.68,353.35 0,200.01 146.67,340.01 318.68,340.01 158.67,0 254.68,-122.67 262.68,-132l-6.67 -8c-21.33,26.67 -100,114.67 -217.34,114.67zm-64.01 -642.69c133.34,0 160.01,156 161.34,300.01l-326.68 0c2.67,-142.67 41.34,-300.01 165.34,-300.01zm662.7 1.33c154.68,0 189.34,92 198.68,161.34l8 0 -12 -137.34c-37.34,-29.33 -84.01,-50.67 -188.01,-50.67 -134.67,0 -238.68,77.34 -238.68,184.01 0,120 124.01,172.01 202.68,202.67 69.33,26.67 172.01,45.34 172.01,146.68 0,92 -86.67,141.34 -169.34,141.34 -80.01,0 -133.34,-33.34 -172.01,-104.01 -13.34,-24 -24,-52 -34.67,-82.67l-6.67 2.67 38.67 173.34c54.67,18.67 112.01,29.33 172.01,29.33 102.67,0 265.34,-52 265.34,-209.34 0,-100 -49.33,-154.67 -178.67,-201.34 -116.01,-41.34 -197.34,-77.34 -197.34,-142.67 0,-81.34 84,-113.34 140,-113.34zm734.7 561.36c-16,24 -50.67,52 -102.67,52 -61.34,0 -106.68,-34.67 -106.68,-114.67l1.34 -496.02 134.67 0 0 -16.01 -134.67 0 0 -266.67 -10.67 0c0,49.33 -68,266.67 -205.34,266.67l-28 0 0 16.01 82.67 0c41.33,6.66 44,34.66 44,49.33l0 421.35c0,77.34 25.33,193.34 142.67,193.34 140.01,0 176.01,-72 189.34,-90.67l-6.66 -14.66z"/>
   <path class="fil1" d="M-0 9744.43l0 -1473.75 408.59 0c146.36,0 270.36,22.02 371.99,66.06 101.64,44.05 184.31,103 248,176.85 63.69,73.86 110.11,155.51 139.24,244.95 29.14,89.44 43.71,178.88 43.71,268.33 0,109.76 -19.31,209.03 -57.93,297.8 -38.63,88.76 -92.16,164.31 -160.59,226.65 -68.44,62.34 -146.7,110.11 -234.79,143.31 -88.08,33.2 -180.91,49.8 -278.48,49.8l-479.74 0zm211.41 -205.31l227.67 0c107.06,0 201.92,-20.33 284.59,-60.98 82.66,-40.66 148.05,-100.28 196.16,-178.88 48.11,-78.6 72.16,-174.14 72.16,-286.62 0,-92.16 -15.24,-171.77 -45.74,-238.85 -30.49,-67.08 -70.8,-122.65 -120.95,-166.69 -50.14,-44.04 -106.38,-76.91 -168.71,-98.59 -62.34,-21.68 -126.04,-32.52 -191.08,-32.52l-254.1 0 0 1063.13zm1325.36 -1268.44l965.57 0 0 205.31 -754.16 0 0 424.84 672.84 0 0 205.31 -672.84 0 0 432.98 782.61 0 0 205.31 -994.02 0 0 -1473.75zm1455.46 0l477.7 1193.23 -121.96 -24.39 447.2 -1168.84 252.07 0 -654.55 1542.86 -654.55 -1542.86 254.09 0zm1559.13 581.37l-6.1 73.18 28.46 -40.66 581.37 -613.89 276.45 0 -609.83 638.29 638.29 835.46 -270.36 0 -524.45 -701.3 -115.87 111.8 2.04 589.5 -215.48 0 0 -1473.75 215.48 0 0 581.37zm1020.45 892.38l648.45 -1534.73 12.19 0 648.45 1534.73 -245.96 0 -471.6 -1201.36 152.46 -99.61 -532.59 1300.97 -211.4 0zm392.32 -552.91l528.52 0 73.18 182.95 -664.72 0 63.02 -182.95zm1835.58 -920.84c149.07,0 266.29,30.49 351.67,91.47 85.37,60.99 128.06,154.49 128.06,280.52 0,79.96 -18.29,148.73 -54.88,206.33 -36.59,57.59 -87.75,102.65 -153.48,135.18 -65.72,32.52 -142.63,50.82 -230.71,54.88l-30.49 -113.83c102.99,2.71 195.14,20.66 276.45,53.87 81.31,33.2 146.02,79.27 194.13,138.22 48.11,58.95 72.16,129.08 72.16,210.39 0,74.54 -13.89,138.23 -41.67,191.08 -27.78,52.86 -65.05,95.88 -111.8,129.08 -46.75,33.21 -99.61,57.6 -158.56,73.18 -58.95,15.59 -120.27,23.38 -183.96,23.38l-445.18 0 0 -1473.75 388.26 0zm38.62 638.29c77.25,0 133.49,-22.03 168.72,-66.07 35.24,-44.04 52.85,-95.88 52.85,-155.51 0,-73.17 -22.69,-126.7 -68.09,-160.58 -45.4,-33.88 -106.05,-50.82 -181.93,-50.82l-187.02 0 0 432.98 215.47 0zm8.13 638.28c79.96,0 147.72,-17.61 203.28,-52.85 55.56,-35.23 83.34,-90.12 83.34,-164.65 0,-54.21 -14.9,-96.9 -44.72,-128.07 -29.81,-31.17 -67.76,-53.53 -113.83,-67.08 -46.08,-13.55 -93.51,-20.33 -142.29,-20.33l-209.38 0 0 432.98 223.6 0zm831.4 -1276.57l965.57 0 0 205.31 -754.16 0 0 424.84 672.84 0 0 205.31 -672.84 0 0 432.98 782.61 0 0 205.31 -994.02 0 0 -1473.75zm1179.01 1473.75l648.45 -1534.73 12.19 0 648.45 1534.73 -245.96 0 -471.6 -1201.36 152.46 -99.61 -532.59 1300.97 -211.4 0zm392.32 -552.91l528.52 0 73.18 182.95 -664.72 0 63.02 -182.95zm3772.81 -920.84l0 1473.75 -213.44 0 0 -638.29 -754.16 0 0 638.29 -211.41 0 0 -1473.75 211.41 0 0 632.19 754.16 0 0 -632.19 213.44 0zm1081.43 0c102.99,0 194.47,17.96 274.42,53.87 79.96,35.91 142.63,88.08 188.03,156.52 45.4,68.44 68.1,152.8 68.1,253.08 0,58.27 -8.81,115.87 -26.43,172.78 -17.61,56.92 -45.73,108.42 -84.36,154.49 -38.62,46.08 -90.12,83.01 -154.49,110.79 -64.37,27.78 -143.31,41.67 -236.81,41.67l-217.51 0 0 530.55 -211.41 0 0 -1473.75 400.46 0zm24.39 737.89c75.89,0 134.5,-14.57 175.83,-43.7 41.34,-29.14 70.14,-64.37 86.4,-105.71 16.26,-41.33 24.39,-80.29 24.39,-116.88 0,-27.1 -4.74,-55.9 -14.23,-86.39 -9.49,-30.49 -24.73,-59.63 -45.74,-87.41 -21,-27.78 -49.12,-50.14 -84.36,-67.08 -35.23,-16.94 -78.6,-25.41 -130.09,-25.41l-225.64 0 0 532.58 213.44 0zm248 126.03l382.16 609.83 -248 0 -388.26 -605.76 254.1 -4.07zm676.9 -863.92l965.57 0 0 205.31 -754.16 0 0 424.84 672.84 0 0 205.31 -672.84 0 0 432.98 782.61 0 0 205.31 -994.02 0 0 -1473.75zm2097.81 278.49c-51.49,-27.11 -107.05,-50.14 -166.68,-69.12 -59.63,-18.97 -117.22,-28.46 -172.79,-28.46 -77.24,0 -138.22,17.28 -182.94,51.84 -44.73,34.56 -67.09,82.33 -67.09,143.31 0,42.01 14.91,78.6 44.73,109.77 29.81,31.17 68.43,58.27 115.86,81.31 47.43,23.04 97.57,44.72 150.43,65.05 60.98,21.68 119.93,49.12 176.85,82.32 56.91,33.21 103.67,77.59 140.26,133.15 36.59,55.56 54.88,130.1 54.88,223.6 0,77.25 -19.65,147.72 -58.95,211.41 -39.3,63.69 -95.2,114.17 -167.7,151.44 -72.5,37.27 -159.57,55.9 -261.21,55.9 -94.86,0 -184.64,-15.24 -269.34,-45.74 -84.7,-30.49 -157.54,-66.74 -218.52,-108.75l95.54 -168.72c47.43,36.59 105.7,68.44 174.81,95.54 69.12,27.11 134.84,40.66 197.18,40.66 46.08,0 90.8,-7.79 134.16,-23.38 43.37,-15.58 79.62,-40.31 108.76,-74.19 29.13,-33.88 43.7,-78.6 43.7,-134.17 0,-46.07 -12.87,-85.37 -38.62,-117.9 -25.75,-32.52 -59.29,-60.3 -100.62,-83.34 -41.34,-23.04 -85.72,-43.37 -133.15,-60.98 -46.07,-17.62 -93.17,-36.93 -141.28,-57.94 -48.1,-21 -92.15,-47.09 -132.13,-78.26 -39.97,-31.17 -72.5,-69.45 -97.57,-114.85 -25.07,-45.4 -37.6,-100.62 -37.6,-165.67 0,-79.95 18.63,-149.07 55.9,-207.34 37.26,-58.27 89.1,-104.35 155.5,-138.23 66.41,-33.88 142.3,-52.17 227.67,-54.88 97.57,0 182.95,11.86 256.13,35.57 73.18,23.72 137.55,52.51 193.11,86.39l-79.28 164.66zm325.25 459.4c0,-101.64 19.31,-197.85 57.93,-288.65 38.63,-90.8 92.49,-171.09 161.61,-240.88 69.11,-69.79 149.07,-124.68 239.86,-164.66 90.8,-39.97 187.7,-59.96 290.69,-59.96 102.99,0 200.23,19.99 291.7,59.96 91.47,39.98 172.11,94.87 241.9,164.66 69.79,69.79 124.34,150.08 163.64,240.88 39.3,90.8 58.95,187.01 58.95,288.65 0,104.35 -19.65,201.92 -58.95,292.72 -39.3,90.79 -93.85,170.75 -163.64,239.86 -69.79,69.12 -150.43,122.99 -241.9,161.61 -91.47,38.62 -188.71,57.93 -291.7,57.93 -102.99,0 -199.89,-19.31 -290.69,-57.93 -90.79,-38.62 -170.75,-91.81 -239.86,-159.57 -69.12,-67.76 -122.98,-147.38 -161.61,-238.85 -38.62,-91.48 -57.93,-190.07 -57.93,-295.77zm219.54 2.03c0,100.29 23.71,191.76 71.14,274.43 47.44,82.66 111.81,148.39 193.12,197.17 81.31,48.79 172.1,73.18 272.39,73.18 98.92,0 188.37,-24.39 268.32,-73.18 79.96,-48.78 143.65,-114.51 191.08,-197.17 47.43,-82.67 71.15,-174.82 71.15,-276.46 0,-101.64 -24.06,-194.13 -72.17,-277.47 -48.1,-83.34 -112.48,-149.41 -193.11,-198.19 -80.63,-48.79 -170.41,-73.18 -269.34,-73.18 -100.28,0 -190.74,24.73 -271.37,74.19 -80.64,49.47 -144.33,115.87 -191.08,199.21 -46.76,83.35 -70.13,175.84 -70.13,277.47zm2012.43 -739.92c102.99,0 194.47,17.96 274.42,53.87 79.96,35.91 142.63,88.08 188.03,156.52 45.4,68.44 68.1,152.8 68.1,253.08 0,58.27 -8.81,115.87 -26.43,172.78 -17.61,56.92 -45.73,108.42 -84.36,154.49 -38.62,46.08 -90.12,83.01 -154.49,110.79 -64.37,27.78 -143.31,41.67 -236.81,41.67l-217.51 0 0 530.55 -211.41 0 0 -1473.75 400.46 0zm24.39 737.89c75.89,0 134.5,-14.57 175.83,-43.7 41.34,-29.14 70.14,-64.37 86.4,-105.71 16.26,-41.33 24.39,-80.29 24.39,-116.88 0,-27.1 -4.74,-55.9 -14.23,-86.39 -9.49,-30.49 -24.73,-59.63 -45.74,-87.41 -21,-27.78 -49.12,-50.14 -84.36,-67.08 -35.23,-16.94 -78.6,-25.41 -130.09,-25.41l-225.64 0 0 532.58 213.44 0zm248 126.03l382.16 609.83 -248 0 -388.26 -605.76 254.1 -4.07zm569.17 -863.92l981.82 0 0 205.31 -390.29 0 0 1268.44 -213.44 0 0 -1268.44 -378.09 0 0 -205.31zm-9092.54 1361.95c-23.04,14.91 -55.9,32.86 -98.59,53.87 -42.69,21 -92.83,38.96 -150.43,53.86 -57.59,14.91 -120.27,21.69 -188.03,20.33 -115.19,-1.35 -218.18,-21.68 -308.97,-60.98 -90.8,-39.3 -168.39,-93.17 -232.76,-161.61 -64.37,-68.43 -113.49,-147.03 -147.37,-235.8 -33.88,-88.76 -50.82,-183.28 -50.82,-283.57 0,-111.12 17.96,-213.1 53.87,-305.93 35.91,-92.83 86.39,-173.46 151.44,-241.89 65.05,-68.44 141.95,-121.63 230.72,-159.58 88.76,-37.94 185.99,-56.91 291.7,-56.91 89.44,0 170.75,12.19 243.93,36.59 73.18,24.39 134.84,52.17 184.98,83.34l-85.38 199.21c-39.3,-27.1 -87.74,-52.85 -145.34,-77.24 -57.59,-24.4 -121.62,-36.59 -192.09,-36.59 -92.16,0 -177.19,24.39 -255.11,73.18 -77.93,48.78 -140.27,114.51 -187.02,197.17 -46.75,82.67 -70.13,175.5 -70.13,278.49 0,104.35 21.34,197.86 64.03,280.52 42.69,82.67 103.33,147.72 181.93,195.15 78.6,47.43 170.76,71.14 276.46,71.14 75.89,0 142.63,-11.52 200.23,-34.55 57.59,-23.04 104.68,-49.47 141.27,-79.28l91.48 191.08z"/>
  </g>
 </g>
</svg>
